<svg id="Capa_1" enable-background="new 0 0 512 512" height="512" viewBox="0 0 512 512" width="512" xmlns="http://www.w3.org/2000/svg"><g><path d="m437.02 74.98c-48.353-48.351-112.64-74.98-181.02-74.98s-132.667 26.629-181.02 74.98c-48.351 48.353-74.98 112.64-74.98 181.02s26.629 132.667 74.98 181.02c48.353 48.351 112.64 74.98 181.02 74.98s132.667-26.629 181.02-74.98c48.351-48.353 74.98-112.64 74.98-181.02s-26.629-132.667-74.98-181.02zm-181.02 8.877c64.083 0 119.983 35.02 149.619 86.964-99.338-14.254-199.9-14.254-299.238 0 29.636-51.944 85.535-86.964 149.619-86.964zm-169.382 202.993c58.136.655 107.796 42.361 118.374 99.662l6.616 35.84c-63.838-16.992-113.091-69.742-124.99-135.502zm169.382 21.15c-28.673 0-52-23.327-52-52s23.327-52 52-52 52 23.327 52 52-23.327 52-52 52zm44.392 114.352 6.616-35.84c10.578-57.301 60.238-99.007 118.374-99.662-11.899 65.76-61.152 118.51-124.99 135.502z"/><circle cx="256" cy="256" r="22"/></g></svg>